<svg xmlns="http://www.w3.org/2000/svg" viewBox="0 0 2048 2048"><g id="Logo_2" data-name="Logo 2"><path d="M243.34161,144.53138H96.06616c-66.62048,0-112.97965,66.20776-90.19411,128.81054L576.20328,1840.31408a95.98256,95.98256,0,0,0,90.1941,63.15459H813.67283c66.62048,0,112.97966-66.20776,90.19411-128.81053L333.53572,207.686A95.98258,95.98258,0,0,0,243.34161,144.53138Z"/><path d="M1562.28349,1573.10978A146.42931,146.42931,0,0,1,1415.854,1426.68059h0v-494.348h339.7341a95.98257,95.98257,0,0,0,95.98256-95.98257V697.95645a95.98257,95.98257,0,0,0-95.98256-95.98256H1415.854v-361.46a95.98257,95.98257,0,0,0-95.98257-95.98256H1181.478a95.98257,95.98257,0,0,0-95.98257,95.98256V1426.68107c0,263.32252,213.46508,476.7876,476.7876,476.7876H1952.0174A95.98257,95.98257,0,0,0,2048,1807.48611V1669.09235a95.98257,95.98257,0,0,0-95.98257-95.98257Z"/></g></svg>