<svg id="tempRestoreAndRemoveId" class="restore_and_remove" xmlns="http://www.w3.org/2000/svg" viewBox="0 0 2560 2560"><path d="M1280,299.96832,782.0922,797.87612a121.74926,121.74926,0,0,0,0,172.17945l61.41956,61.41956a121.74926,121.74926,0,0,0,172.17945,0L1280,767.16634l264.30879,264.30879a121.74926,121.74926,0,0,0,172.17945,0l61.41956-61.41956a121.74926,121.74926,0,0,0,0-172.17945Z"/><path d="M1280,767.16634,782.0922,269.25854a121.74925,121.74925,0,0,1,0-172.17944l61.41956-61.41957a121.74926,121.74926,0,0,1,172.17945,0L1280,299.96832,1544.30879,35.65953a121.74926,121.74926,0,0,1,172.17945,0L1777.9078,97.0791a121.74925,121.74925,0,0,1,0,172.17944Z"/><path d="M1114.82068,467.198h330.35864a0,0,0,0,1,0,0V1880.84035a121.74925,121.74925,0,0,1-121.74925,121.74925h-86.86014a121.74925,121.74925,0,0,1-121.74925-121.74925V467.198A0,0,0,0,1,1114.82068,467.198Z"/><path d="M2083.21191,1114.82056H1897.28722A121.74925,121.74925,0,0,0,1775.538,1236.56981v86.86038a121.74925,121.74925,0,0,0,121.74926,121.74925h185.9253a146.42883,146.42883,0,0,1,146.42884,146.42884V2083.2124a146.42871,146.42871,0,0,1-146.42871,146.42871H476.7876a146.429,146.429,0,0,1-146.429-146.42895V1591.60828a146.42883,146.42883,0,0,1,146.42884-146.42884H662.71266a121.74924,121.74924,0,0,0,121.74925-121.74925v-86.86038a121.74924,121.74924,0,0,0-121.74925-121.74925H476.78809C213.4653,1114.82056,0,1328.28585,0,1591.60864V2083.2124C0,2346.53492,213.46508,2560,476.7876,2560H2083.21191C2346.5347,2560,2560,2346.5347,2560,2083.21191V1591.60864C2560,1328.28585,2346.5347,1114.82056,2083.21191,1114.82056Z"/></svg>